<?xml version="1.0" standalone="yes"?>

<svg version="1.1" viewBox="0.0 0.0 960.0 540.0" fill="none" stroke="none" stroke-linecap="square" stroke-miterlimit="10" xmlns="http://www.w3.org/2000/svg" xmlns:xlink="http://www.w3.org/1999/xlink"><clipPath id="p.0"><path d="m0 0l960.0 0l0 540.0l-960.0 0l0 -540.0z" clip-rule="nonzero"></path></clipPath><g clip-path="url(#p.0)"><path fill="#000000" fill-opacity="0.0" d="m0 0l960.0 0l0 540.0l-960.0 0z" fill-rule="nonzero"></path><path stroke="#9e9e9e" stroke-width="1.0" stroke-linecap="butt" d="m26.727034 168.70604l0 202.58794" fill-rule="nonzero"></path><path stroke="#9e9e9e" stroke-width="1.0" stroke-linecap="butt" d="m194.16536 168.70604l0 202.58794" fill-rule="nonzero"></path><path stroke="#9e9e9e" stroke-width="1.0" stroke-linecap="butt" d="m411.67715 168.70604l0 202.58794" fill-rule="nonzero"></path><path stroke="#9e9e9e" stroke-width="1.0" stroke-linecap="butt" d="m627.03674 168.70604l0 202.58794" fill-rule="nonzero"></path><path stroke="#9e9e9e" stroke-width="1.0" stroke-linecap="butt" d="m845.3412 168.70604l0 202.58794" fill-rule="nonzero"></path><path stroke="#9e9e9e" stroke-width="1.0" stroke-linecap="butt" d="m933.27295 168.70604l0 202.58794" fill-rule="nonzero"></path><path stroke="#9e9e9e" stroke-width="1.0" stroke-linecap="butt" d="m26.228346 169.20473l907.54333 0" fill-rule="nonzero"></path><path stroke="#9e9e9e" stroke-width="1.0" stroke-linecap="butt" d="m26.228346 236.40158l907.54333 0" fill-rule="nonzero"></path><path stroke="#9e9e9e" stroke-width="1.0" stroke-linecap="butt" d="m26.228346 303.59842l907.54333 0" fill-rule="nonzero"></path><path stroke="#9e9e9e" stroke-width="1.0" stroke-linecap="butt" d="m26.228346 370.7953l907.54333 0" fill-rule="nonzero"></path><path fill="#ffffff" d="m95.407135 216.60472l0 -28.640625l5.78125 0l0 28.640625l-5.78125 0zm30.269531 0l-5.09375 0l0 -3.046875q-1.265625 1.78125 -3.0 2.65625q-1.71875 0.859375 -3.484375 0.859375q-3.578125 0 -6.125 -2.875q-2.546875 -2.890625 -2.546875 -8.046875q0 -5.265625 2.484375 -8.015625q2.484375 -2.75 6.265625 -2.75q3.484375 0 6.015625 2.890625l0 -10.3125l5.484375 0l0 28.640625zm-14.640625 -10.828125q0 3.328125 0.921875 4.8125q1.328125 2.140625 3.703125 2.140625q1.890625 0 3.21875 -1.609375q1.328125 -1.609375 1.328125 -4.8125q0 -3.578125 -1.296875 -5.140625q-1.28125 -1.578125 -3.28125 -1.578125q-1.953125 0 -3.28125 1.5625q-1.3125 1.546875 -1.3125 4.625z" fill-rule="nonzero"></path><path fill="#ffffff" d="m216.54236 207.29222l5.625 -0.546875q0.5 2.828125 2.046875 4.15625q1.5625 1.328125 4.203125 1.328125q2.78125 0 4.203125 -1.171875q1.421875 -1.1875 1.421875 -2.78125q0 -1.015625 -0.609375 -1.71875q-0.59375 -0.71875 -2.078125 -1.25q-1.015625 -0.34375 -4.625 -1.25q-4.640625 -1.140625 -6.515625 -2.828125q-2.640625 -2.359375 -2.640625 -5.765625q0 -2.1875 1.234375 -4.078125q1.25 -1.90625 3.578125 -2.90625q2.328125 -1.0 5.640625 -1.0q5.390625 0 8.109375 2.375q2.71875 2.359375 2.859375 6.296875l-5.78125 0.25q-0.375 -2.203125 -1.59375 -3.171875q-1.21875 -0.96875 -3.65625 -0.96875q-2.515625 0 -3.953125 1.046875q-0.90625 0.65625 -0.90625 1.765625q0 1.015625 0.859375 1.75q1.09375 0.90625 5.3125 1.90625q4.21875 1.0 6.234375 2.0625q2.015625 1.0625 3.15625 2.90625q1.15625 1.84375 1.15625 4.5625q0 2.46875 -1.375 4.625q-1.359375 2.140625 -3.859375 3.1875q-2.5 1.046875 -6.234375 1.046875q-5.4375 0 -8.34375 -2.515625q-2.90625 -2.515625 -3.46875 -7.3125zm25.507812 -11.4375l5.828125 0l4.96875 14.734375l4.84375 -14.734375l5.6875 0l-7.328125 19.96875l-1.3125 3.609375q-0.71875 1.828125 -1.375 2.78125q-0.65625 0.953125 -1.515625 1.546875q-0.84375 0.59375 -2.078125 0.921875q-1.234375 0.34375 -2.796875 0.34375q-1.59375 0 -3.109375 -0.328125l-0.484375 -4.296875q1.28125 0.25 2.3125 0.25q1.921875 0 2.828125 -1.125q0.921875 -1.125 1.421875 -2.859375l-7.890625 -20.8125zm22.902344 14.828125l5.515625 -0.84375q0.34375 1.609375 1.421875 2.4375q1.078125 0.828125 3.0 0.828125q2.140625 0 3.203125 -0.78125q0.734375 -0.546875 0.734375 -1.46875q0 -0.625 -0.390625 -1.03125q-0.421875 -0.390625 -1.84375 -0.71875q-6.640625 -1.46875 -8.421875 -2.671875q-2.453125 -1.6875 -2.453125 -4.671875q0 -2.703125 2.125 -4.53125q2.125 -1.84375 6.609375 -1.84375q4.25 0 6.3125 1.390625q2.078125 1.390625 2.859375 4.109375l-5.171875 0.953125q-0.328125 -1.21875 -1.265625 -1.859375q-0.921875 -0.640625 -2.640625 -0.640625q-2.171875 0 -3.109375 0.609375q-0.625 0.421875 -0.625 1.109375q0 0.578125 0.546875 1.0q0.75 0.546875 5.125 1.546875q4.390625 0.984375 6.125 2.4375q1.71875 1.453125 1.71875 4.078125q0 2.84375 -2.390625 4.90625q-2.375 2.046875 -7.046875 2.046875q-4.234375 0 -6.703125 -1.71875q-2.46875 -1.71875 -3.234375 -4.671875zm33.69922 -14.828125l0 4.375l-3.75 0l0 8.359375q0 2.546875 0.09375 2.96875q0.109375 0.421875 0.484375 0.703125q0.390625 0.265625 0.9375 0.265625q0.765625 0 2.203125 -0.53125l0.46875 4.25q-1.90625 0.828125 -4.328125 0.828125q-1.484375 0 -2.6875 -0.5q-1.1875 -0.5 -1.75 -1.28125q-0.546875 -0.796875 -0.765625 -2.140625q-0.171875 -0.96875 -0.171875 -3.875l0 -9.046875l-2.515625 0l0 -4.375l2.515625 0l0 -4.109375l5.515625 -3.203125l0 7.3125l3.75 0zm15.8203125 14.140625l5.46875 0.921875q-1.0625 3.015625 -3.34375 4.59375q-2.265625 1.5625 -5.6875 1.5625q-5.40625 0 -8.0 -3.53125q-2.0625 -2.84375 -2.0625 -7.15625q0 -5.15625 2.6875 -8.078125q2.703125 -2.921875 6.828125 -2.921875q4.625 0 7.296875 3.0625q2.6875 3.0625 2.5625 9.359375l-13.75 0q0.0625 2.453125 1.328125 3.8125q1.28125 1.34375 3.171875 1.34375q1.28125 0 2.15625 -0.703125q0.890625 -0.703125 1.34375 -2.265625zm0.3125 -5.546875q-0.0625 -2.375 -1.234375 -3.609375q-1.171875 -1.25 -2.859375 -1.25q-1.796875 0 -2.96875 1.3125q-1.171875 1.3125 -1.140625 3.546875l8.203125 0zm9.511719 -8.59375l5.046875 0l0 2.84375q2.71875 -3.3125 6.46875 -3.3125q2.0 0 3.453125 0.828125q1.46875 0.8125 2.40625 2.484375q1.375 -1.671875 2.953125 -2.484375q1.578125 -0.828125 3.375 -0.828125q2.28125 0 3.859375 0.9375q1.59375 0.921875 2.375 2.71875q0.5625 1.328125 0.5625 4.296875l0 13.265625l-5.484375 0l0 -11.859375q0 -3.078125 -0.5625 -3.984375q-0.765625 -1.171875 -2.34375 -1.171875q-1.15625 0 -2.171875 0.703125q-1.015625 0.703125 -1.46875 2.0625q-0.453125 1.359375 -0.453125 4.28125l0 9.96875l-5.484375 0l0 -11.375q0 -3.015625 -0.296875 -3.890625q-0.28125 -0.890625 -0.90625 -1.3125q-0.609375 -0.4375 -1.671875 -0.4375q-1.265625 0 -2.28125 0.6875q-1.015625 0.6875 -1.453125 1.984375q-0.4375 1.28125 -0.4375 4.265625l0 10.078125l-5.484375 0l0 -20.75zm59.960938 20.75l-5.5 0l0 -20.6875q-3.0 2.8125 -7.078125 4.15625l0 -4.96875q2.140625 -0.703125 4.65625 -2.671875q2.53125 -1.96875 3.46875 -4.578125l4.453125 0l0 28.75z" fill-rule="nonzero"></path><path fill="#ffffff" d="m432.97806 207.29222l5.625 -0.546875q0.5 2.828125 2.046875 4.15625q1.5625 1.328125 4.203125 1.328125q2.78125 0 4.203125 -1.171875q1.421875 -1.1875 1.421875 -2.78125q0 -1.015625 -0.609375 -1.71875q-0.59375 -0.71875 -2.078125 -1.25q-1.015625 -0.34375 -4.625 -1.25q-4.640625 -1.140625 -6.515625 -2.828125q-2.640625 -2.359375 -2.640625 -5.765625q0 -2.1875 1.234375 -4.078125q1.25 -1.90625 3.578125 -2.90625q2.328125 -1.0 5.640625 -1.0q5.390625 0 8.109375 2.375q2.71875 2.359375 2.859375 6.296875l-5.78125 0.25q-0.375 -2.203125 -1.59375 -3.171875q-1.21875 -0.96875 -3.65625 -0.96875q-2.515625 0 -3.953125 1.046875q-0.90625 0.65625 -0.90625 1.765625q0 1.015625 0.859375 1.75q1.09375 0.90625 5.3125 1.90625q4.21875 1.0 6.234375 2.0625q2.015625 1.0625 3.15625 2.90625q1.15625 1.84375 1.15625 4.5625q0 2.46875 -1.375 4.625q-1.359375 2.140625 -3.859375 3.1875q-2.5 1.046875 -6.234375 1.046875q-5.4375 0 -8.34375 -2.515625q-2.90625 -2.515625 -3.46875 -7.3125zm25.507812 -11.4375l5.828125 0l4.96875 14.734375l4.84375 -14.734375l5.6875 0l-7.328125 19.96875l-1.3125 3.609375q-0.71875 1.828125 -1.375 2.78125q-0.65625 0.953125 -1.515625 1.546875q-0.84375 0.59375 -2.078125 0.921875q-1.234375 0.34375 -2.796875 0.34375q-1.59375 0 -3.109375 -0.328125l-0.484375 -4.296875q1.28125 0.25 2.3125 0.25q1.921875 0 2.828125 -1.125q0.921875 -1.125 1.421875 -2.859375l-7.890625 -20.8125zm22.902344 14.828125l5.515625 -0.84375q0.34375 1.609375 1.421875 2.4375q1.078125 0.828125 3.0 0.828125q2.140625 0 3.203125 -0.78125q0.734375 -0.546875 0.734375 -1.46875q0 -0.625 -0.390625 -1.03125q-0.421875 -0.390625 -1.84375 -0.71875q-6.640625 -1.46875 -8.421875 -2.671875q-2.453125 -1.6875 -2.453125 -4.671875q0 -2.703125 2.125 -4.53125q2.125 -1.84375 6.609375 -1.84375q4.25 0 6.3125 1.390625q2.078125 1.390625 2.859375 4.109375l-5.171875 0.953125q-0.328125 -1.21875 -1.265625 -1.859375q-0.921875 -0.640625 -2.640625 -0.640625q-2.171875 0 -3.109375 0.609375q-0.625 0.421875 -0.625 1.109375q0 0.578125 0.546875 1.0q0.75 0.546875 5.125 1.546875q4.390625 0.984375 6.125 2.4375q1.71875 1.453125 1.71875 4.078125q0 2.84375 -2.390625 4.90625q-2.375 2.046875 -7.046875 2.046875q-4.234375 0 -6.703125 -1.71875q-2.46875 -1.71875 -3.234375 -4.671875zm33.69919 -14.828125l0 4.375l-3.7499695 0l0 8.359375q0 2.546875 0.09375 2.96875q0.109375 0.421875 0.484375 0.703125q0.39059448 0.265625 0.9374695 0.265625q0.765625 0 2.203125 -0.53125l0.46875 4.25q-1.90625 0.828125 -4.3280945 0.828125q-1.484375 0 -2.6875 -0.5q-1.1875 -0.5 -1.75 -1.28125q-0.546875 -0.796875 -0.765625 -2.140625q-0.171875 -0.96875 -0.171875 -3.875l0 -9.046875l-2.515625 0l0 -4.375l2.515625 0l0 -4.109375l5.515625 -3.203125l0 7.3125l3.7499695 0zm15.8203125 14.140625l5.46875 0.921875q-1.0625 3.015625 -3.34375 4.59375q-2.265625 1.5625 -5.6875 1.5625q-5.40625 0 -8.0 -3.53125q-2.0625 -2.84375 -2.0625 -7.15625q0 -5.15625 2.6875 -8.078125q2.703125 -2.921875 6.828125 -2.921875q4.625 0 7.296875 3.0625q2.6875 3.0625 2.5625 9.359375l-13.75 0q0.0625 2.453125 1.328125 3.8125q1.28125 1.34375 3.171875 1.34375q1.28125 0 2.15625 -0.703125q0.890625 -0.703125 1.34375 -2.265625zm0.3125 -5.546875q-0.0625 -2.375 -1.234375 -3.609375q-1.171875 -1.25 -2.859375 -1.25q-1.796875 0 -2.96875 1.3125q-1.171875 1.3125 -1.140625 3.546875l8.203125 0zm9.511719 -8.59375l5.046875 0l0 2.84375q2.71875 -3.3125 6.46875 -3.3125q2.0 0 3.453125 0.828125q1.46875 0.8125 2.40625 2.484375q1.375 -1.671875 2.953125 -2.484375q1.578125 -0.828125 3.375 -0.828125q2.28125 0 3.859375 0.9375q1.59375 0.921875 2.375 2.71875q0.5625 1.328125 0.5625 4.296875l0 13.265625l-5.484375 0l0 -11.859375q0 -3.078125 -0.5625 -3.984375q-0.765625 -1.171875 -2.34375 -1.171875q-1.15625 0 -2.171875 0.703125q-1.015625 0.703125 -1.46875 2.0625q-0.453125 1.359375 -0.453125 4.28125l0 9.96875l-5.484375 0l0 -11.375q0 -3.015625 -0.296875 -3.890625q-0.28125 -0.890625 -0.90625 -1.3125q-0.609375 -0.4375 -1.671875 -0.4375q-1.265625 0 -2.28125 0.6875q-1.015625 0.6875 -1.453125 1.984375q-0.4375 1.28125 -0.4375 4.265625l0 10.078125l-5.484375 0l0 -20.75zm64.44531 15.65625l0 5.09375l-19.234375 0q0.3125 -2.890625 1.875 -5.46875q1.5625 -2.59375 6.171875 -6.875q3.703125 -3.453125 4.546875 -4.6875q1.140625 -1.703125 1.140625 -3.359375q0 -1.84375 -1.0 -2.828125q-0.984375 -0.984375 -2.71875 -0.984375q-1.71875 0 -2.734375 1.046875q-1.015625 1.03125 -1.171875 3.421875l-5.46875 -0.546875q0.484375 -4.53125 3.0625 -6.5q2.578125 -1.96875 6.453125 -1.96875q4.234375 0 6.65625 2.28125q2.421875 2.28125 2.421875 5.6875q0 1.9375 -0.703125 3.6875q-0.6875 1.734375 -2.1875 3.65625q-1.0 1.265625 -3.59375 3.65625q-2.59375 2.375 -3.296875 3.15625q-0.6875 0.78125 -1.109375 1.53125l10.890625 0z" fill-rule="nonzero"></path><path fill="#ffffff" d="m649.81006 207.29222l5.625 -0.546875q0.5 2.828125 2.046875 4.15625q1.5625 1.328125 4.203125 1.328125q2.78125 0 4.203125 -1.171875q1.421875 -1.1875 1.421875 -2.78125q0 -1.015625 -0.609375 -1.71875q-0.59375 -0.71875 -2.078125 -1.25q-1.015625 -0.34375 -4.625 -1.25q-4.640625 -1.140625 -6.515625 -2.828125q-2.640625 -2.359375 -2.640625 -5.765625q0 -2.1875 1.234375 -4.078125q1.25 -1.90625 3.578125 -2.90625q2.328125 -1.0 5.640625 -1.0q5.390625 0 8.109375 2.375q2.71875 2.359375 2.859375 6.296875l-5.78125 0.25q-0.375 -2.203125 -1.59375 -3.171875q-1.21875 -0.96875 -3.65625 -0.96875q-2.515625 0 -3.953125 1.046875q-0.90625 0.65625 -0.90625 1.765625q0 1.015625 0.859375 1.75q1.09375 0.90625 5.3125 1.90625q4.21875 1.0 6.234375 2.0625q2.015625 1.0625 3.15625 2.90625q1.15625 1.84375 1.15625 4.5625q0 2.46875 -1.375 4.625q-1.359375 2.140625 -3.859375 3.1875q-2.5 1.046875 -6.234375 1.046875q-5.4375 0 -8.34375 -2.515625q-2.90625 -2.515625 -3.46875 -7.3125zm25.507812 -11.4375l5.828125 0l4.96875 14.734375l4.84375 -14.734375l5.6875 0l-7.328125 19.96875l-1.3125 3.609375q-0.71875 1.828125 -1.375 2.78125q-0.65625 0.953125 -1.515625 1.546875q-0.84375 0.59375 -2.078125 0.921875q-1.234375 0.34375 -2.796875 0.34375q-1.59375 0 -3.109375 -0.328125l-0.484375 -4.296875q1.28125 0.25 2.3125 0.25q1.921875 0 2.828125 -1.125q0.921875 -1.125 1.421875 -2.859375l-7.890625 -20.8125zm22.902344 14.828125l5.515625 -0.84375q0.34375 1.609375 1.421875 2.4375q1.078125 0.828125 3.0 0.828125q2.140625 0 3.203125 -0.78125q0.734375 -0.546875 0.734375 -1.46875q0 -0.625 -0.390625 -1.03125q-0.421875 -0.390625 -1.84375 -0.71875q-6.640625 -1.46875 -8.421875 -2.671875q-2.453125 -1.6875 -2.453125 -4.671875q0 -2.703125 2.125 -4.53125q2.125 -1.84375 6.609375 -1.84375q4.25 0 6.3125 1.390625q2.078125 1.390625 2.859375 4.109375l-5.171875 0.953125q-0.328125 -1.21875 -1.265625 -1.859375q-0.921875 -0.640625 -2.640625 -0.640625q-2.171875 0 -3.109375 0.609375q-0.625 0.421875 -0.625 1.109375q0 0.578125 0.546875 1.0q0.75 0.546875 5.125 1.546875q4.390625 0.984375 6.125 2.4375q1.71875 1.453125 1.71875 4.078125q0 2.84375 -2.390625 4.90625q-2.375 2.046875 -7.046875 2.046875q-4.234375 0 -6.703125 -1.71875q-2.46875 -1.71875 -3.234375 -4.671875zm33.69922 -14.828125l0 4.375l-3.75 0l0 8.359375q0 2.546875 0.09375 2.96875q0.109375 0.421875 0.484375 0.703125q0.390625 0.265625 0.9375 0.265625q0.765625 0 2.203125 -0.53125l0.46875 4.25q-1.90625 0.828125 -4.328125 0.828125q-1.484375 0 -2.6875 -0.5q-1.1875 -0.5 -1.75 -1.28125q-0.546875 -0.796875 -0.765625 -2.140625q-0.171875 -0.96875 -0.171875 -3.875l0 -9.046875l-2.515625 0l0 -4.375l2.515625 0l0 -4.109375l5.515625 -3.203125l0 7.3125l3.75 0zm15.8203125 14.140625l5.46875 0.921875q-1.0625 3.015625 -3.34375 4.59375q-2.265625 1.5625 -5.6875 1.5625q-5.40625 0 -8.0 -3.53125q-2.0625 -2.84375 -2.0625 -7.15625q0 -5.15625 2.6875 -8.078125q2.703125 -2.921875 6.828125 -2.921875q4.625 0 7.296875 3.0625q2.6875 3.0625 2.5625 9.359375l-13.75 0q0.0625 2.453125 1.328125 3.8125q1.28125 1.34375 3.171875 1.34375q1.28125 0 2.15625 -0.703125q0.890625 -0.703125 1.34375 -2.265625zm0.3125 -5.546875q-0.0625 -2.375 -1.234375 -3.609375q-1.171875 -1.25 -2.859375 -1.25q-1.796875 0 -2.96875 1.3125q-1.171875 1.3125 -1.140625 3.546875l8.203125 0zm9.511719 -8.59375l5.046875 0l0 2.84375q2.71875 -3.3125 6.46875 -3.3125q2.0 0 3.453125 0.828125q1.46875 0.8125 2.40625 2.484375q1.375 -1.671875 2.953125 -2.484375q1.578125 -0.828125 3.375 -0.828125q2.28125 0 3.859375 0.9375q1.59375 0.921875 2.375 2.71875q0.5625 1.328125 0.5625 4.296875l0 13.265625l-5.484375 0l0 -11.859375q0 -3.078125 -0.5625 -3.984375q-0.765625 -1.171875 -2.34375 -1.171875q-1.15625 0 -2.171875 0.703125q-1.015625 0.703125 -1.46875 2.0625q-0.453125 1.359375 -0.453125 4.28125l0 9.96875l-5.484375 0l0 -11.375q0 -3.015625 -0.296875 -3.890625q-0.28125 -0.890625 -0.90625 -1.3125q-0.609375 -0.4375 -1.671875 -0.4375q-1.265625 0 -2.28125 0.6875q-1.015625 0.6875 -1.453125 1.984375q-0.4375 1.28125 -0.4375 4.265625l0 10.078125l-5.484375 0l0 -20.75zm45.710938 13.15625l5.3125 -0.65625q0.265625 2.03125 1.375 3.109375q1.109375 1.078125 2.6875 1.078125q1.703125 0 2.859375 -1.28125q1.171875 -1.296875 1.171875 -3.484375q0 -2.078125 -1.125 -3.28125q-1.109375 -1.21875 -2.703125 -1.21875q-1.0625 0 -2.515625 0.421875l0.59375 -4.484375q2.234375 0.0625 3.40625 -0.953125q1.171875 -1.03125 1.171875 -2.734375q0 -1.4375 -0.859375 -2.296875q-0.859375 -0.859375 -2.28125 -0.859375q-1.40625 0 -2.40625 0.984375q-1.0 0.96875 -1.21875 2.84375l-5.046875 -0.859375q0.515625 -2.609375 1.578125 -4.15625q1.078125 -1.546875 2.96875 -2.4375q1.90625 -0.890625 4.28125 -0.890625q4.03125 0 6.484375 2.578125q2.0 2.109375 2.0 4.765625q0 3.765625 -4.109375 6.015625q2.453125 0.53125 3.921875 2.375q1.484375 1.828125 1.484375 4.421875q0 3.765625 -2.765625 6.421875q-2.75 2.65625 -6.84375 2.65625q-3.890625 0 -6.453125 -2.234375q-2.546875 -2.234375 -2.96875 -5.84375z" fill-rule="nonzero"></path><path fill="#ffffff" d="m875.29144 209.99535l5.46875 0.921875q-1.0625 3.015625 -3.34375 4.59375q-2.265625 1.5625 -5.6875 1.5625q-5.40625 0 -8.0 -3.53125q-2.0625 -2.84375 -2.0625 -7.15625q0 -5.15625 2.6875 -8.078125q2.703125 -2.921875 6.828125 -2.921875q4.625 0 7.296875 3.0625q2.6875 3.0625 2.5625 9.359375l-13.75 0q0.0625 2.453125 1.328125 3.8125q1.28125 1.34375 3.171875 1.34375q1.28125 0 2.15625 -0.703125q0.890625 -0.703125 1.34375 -2.265625zm0.3125 -5.546875q-0.0625 -2.375 -1.234375 -3.609375q-1.171875 -1.25 -2.859375 -1.25q-1.796875 0 -2.96875 1.3125q-1.171875 1.3125 -1.140625 3.546875l8.203125 0zm19.433594 -8.59375l0 4.375l-3.75 0l0 8.359375q0 2.546875 0.09375 2.96875q0.109375 0.421875 0.484375 0.703125q0.390625 0.265625 0.9375 0.265625q0.765625 0 2.203125 -0.53125l0.46875 4.25q-1.90625 0.828125 -4.328125 0.828125q-1.484375 0 -2.6875 -0.5q-1.1875 -0.5 -1.75 -1.28125q-0.546875 -0.796875 -0.765625 -2.140625q-0.171875 -0.96875 -0.171875 -3.875l0 -9.046875l-2.515625 0l0 -4.375l2.515625 0l0 -4.109375l5.515625 -3.203125l0 7.3125l3.75 0zm21.882812 6.140625l-5.40625 0.96875q-0.265625 -1.609375 -1.234375 -2.421875q-0.96875 -0.828125 -2.515625 -0.828125q-2.046875 0 -3.265625 1.421875q-1.21875 1.40625 -1.21875 4.71875q0 3.703125 1.234375 5.234375q1.234375 1.515625 3.328125 1.515625q1.5625 0 2.5625 -0.890625q1.0 -0.890625 1.40625 -3.0625l5.390625 0.921875q-0.84375 3.703125 -3.234375 5.609375q-2.375 1.890625 -6.375 1.890625q-4.546875 0 -7.265625 -2.875q-2.703125 -2.875 -2.703125 -7.953125q0 -5.125 2.71875 -7.984375q2.71875 -2.875 7.34375 -2.875q3.796875 0 6.03125 1.640625q2.234375 1.625 3.203125 4.96875z" fill-rule="nonzero"></path><path fill="#ffffff" d="m51.72159 283.80157l5.296875 -25.375l-9.390625 0l0.6875 -3.265625l22.53125 0l-0.6875 3.265625l-9.3125 0l-5.296875 25.375l-3.828125 0zm16.683594 0l4.34375 -20.75l3.125 0l-0.890625 4.25q1.609375 -2.40625 3.140625 -3.5625q1.53125 -1.15625 3.140625 -1.15625q1.046875 0 2.59375 0.765625l-1.453125 3.28125q-0.90625 -0.65625 -2.0 -0.65625q-1.859375 0 -3.8125 2.078125q-1.953125 2.0625 -3.0625 7.421875l-1.765625 8.328125l-3.359375 0zm27.304688 -2.578125q-1.828125 1.578125 -3.53125 2.3125q-1.703125 0.734375 -3.640625 0.734375q-2.859375 0 -4.625 -1.6875q-1.75 -1.6875 -1.75 -4.328125q0 -1.734375 0.78125 -3.078125q0.796875 -1.34375 2.09375 -2.140625q1.3125 -0.8125 3.21875 -1.171875q1.1875 -0.234375 4.515625 -0.359375q3.328125 -0.140625 4.78125 -0.71875q0.40625 -1.4375 0.40625 -2.390625q0 -1.234375 -0.90625 -1.9375q-1.21875 -0.984375 -3.59375 -0.984375q-2.21875 0 -3.640625 1.0q-1.40625 0.984375 -2.0625 2.796875l-3.5625 -0.3125q1.09375 -3.09375 3.453125 -4.734375q2.375 -1.640625 6.0 -1.640625q3.84375 0 6.09375 1.84375q1.71875 1.359375 1.71875 3.546875q0 1.671875 -0.5 3.859375l-1.140625 5.15625q-0.546875 2.453125 -0.546875 4.0q0 0.96875 0.421875 2.8125l-3.578125 0q-0.28125 -1.015625 -0.40625 -2.578125zm1.3125 -7.9375q-0.75 0.296875 -1.59375 0.453125q-0.84375 0.15625 -2.84375 0.328125q-3.078125 0.28125 -4.359375 0.703125q-1.265625 0.421875 -1.90625 1.34375q-0.640625 0.90625 -0.640625 2.015625q0 1.484375 1.015625 2.453125q1.03125 0.953125 2.921875 0.953125q1.765625 0 3.375 -0.921875q1.625 -0.9375 2.5625 -2.59375q0.9375 -1.65625 1.46875 -4.734375zm21.261719 2.953125l3.546875 0.375q-1.328125 3.890625 -3.78125 5.78125q-2.453125 1.875 -5.578125 1.875q-3.375 0 -5.484375 -2.1875q-2.09375 -2.1875 -2.09375 -6.109375q0 -3.40625 1.34375 -6.6875q1.34375 -3.28125 3.859375 -4.984375q2.515625 -1.71875 5.734375 -1.71875q3.34375 0 5.296875 1.890625q1.953125 1.890625 1.953125 4.984375l-3.484375 0.234375q-0.015625 -1.96875 -1.140625 -3.078125q-1.125 -1.109375 -2.953125 -1.109375q-2.140625 0 -3.703125 1.34375q-1.5625 1.34375 -2.453125 4.09375q-0.875 2.734375 -0.875 5.28125q0 2.65625 1.171875 3.984375q1.171875 1.328125 2.890625 1.328125q1.71875 0 3.28125 -1.3125q1.578125 -1.3125 2.46875 -3.984375zm20.921875 0.515625l3.4375 0.34375q-0.734375 2.5625 -3.40625 4.875q-2.671875 2.296875 -6.359375 2.296875q-2.296875 0 -4.234375 -1.0625q-1.921875 -1.0625 -2.921875 -3.09375q-1.0 -2.03125 -1.0 -4.640625q0 -3.390625 1.5625 -6.578125q1.578125 -3.203125 4.078125 -4.75q2.5 -1.5625 5.40625 -1.5625q3.71875 0 5.921875 2.3125q2.21875 2.296875 2.21875 6.28125q0 1.53125 -0.265625 3.125l-15.28125 0q-0.078125 0.609375 -0.078125 1.09375q0 2.921875 1.34375 4.453125q1.34375 1.53125 3.265625 1.53125q1.828125 0 3.578125 -1.1875q1.765625 -1.203125 2.734375 -3.4375zm-10.265625 -5.140625l11.640625 0q0.015625 -0.546875 0.015625 -0.78125q0 -2.65625 -1.328125 -4.0625q-1.328125 -1.421875 -3.421875 -1.421875q-2.265625 0 -4.140625 1.5625q-1.859375 1.5625 -2.765625 4.703125zm36.6875 12.1875l4.53125 -21.625q-2.921875 2.3125 -8.234375 3.6875l0.65625 -3.203125q2.640625 -1.046875 5.203125 -2.75q2.578125 -1.703125 3.859375 -2.96875q0.78125 -0.78125 1.484375 -1.890625l2.0625 0l-6.0 28.75l-3.5625 0z" fill-rule="nonzero"></path><path fill="#ffffff" d="m230.20642 274.59845l3.578125 -0.3125q0.25 2.15625 1.171875 3.53125q0.9375 1.375 2.890625 2.234375q1.953125 0.84375 4.390625 0.84375q2.171875 0 3.828125 -0.640625q1.65625 -0.65625 2.46875 -1.78125q0.8125 -1.125 0.8125 -2.453125q0 -1.34375 -0.78125 -2.34375q-0.78125 -1.015625 -2.578125 -1.6875q-1.15625 -0.453125 -5.109375 -1.390625q-3.9375 -0.953125 -5.515625 -1.796875q-2.046875 -1.078125 -3.0625 -2.671875q-1.0 -1.59375 -1.0 -3.5625q0 -2.171875 1.234375 -4.046875q1.234375 -1.890625 3.59375 -2.859375q2.359375 -0.984375 5.25 -0.984375q3.1875 0 5.609375 1.03125q2.4375 1.015625 3.75 3.015625q1.3125 1.984375 1.40625 4.515625l-3.640625 0.265625q-0.28125 -2.71875 -1.984375 -4.09375q-1.6875 -1.390625 -4.984375 -1.390625q-3.4375 0 -5.015625 1.265625q-1.5625 1.25 -1.5625 3.03125q0 1.546875 1.109375 2.53125q1.09375 1.0 5.703125 2.046875q4.625 1.046875 6.34375 1.828125q2.5 1.15625 3.6875 2.921875q1.203125 1.765625 1.203125 4.0625q0 2.296875 -1.3125 4.3125q-1.3125 2.015625 -3.765625 3.140625q-2.4375 1.125 -5.515625 1.125q-3.875 0 -6.515625 -1.125q-2.625 -1.140625 -4.125 -3.40625q-1.484375 -2.28125 -1.5625 -5.15625zm27.523438 17.15625l0 -28.703125l3.203125 0l0 2.703125q1.125 -1.578125 2.546875 -2.375q1.4375 -0.796875 3.46875 -0.796875q2.65625 0 4.6875 1.375q2.03125 1.359375 3.0625 3.859375q1.03125 2.484375 1.03125 5.453125q0 3.1875 -1.140625 5.734375q-1.140625 2.546875 -3.328125 3.90625q-2.171875 1.359375 -4.5625 1.359375q-1.765625 0 -3.171875 -0.734375q-1.390625 -0.75 -2.28125 -1.890625l0 10.109375l-3.515625 0zm3.1875 -18.203125q0 4.0 1.609375 5.921875q1.625 1.90625 3.9375 1.90625q2.34375 0 4.0 -1.984375q1.671875 -1.984375 1.671875 -6.140625q0 -3.96875 -1.625 -5.9375q-1.625 -1.96875 -3.890625 -1.96875q-2.25 0 -3.984375 2.09375q-1.71875 2.09375 -1.71875 6.109375zm32.589844 7.6875q-1.953125 1.65625 -3.765625 2.34375q-1.796875 0.6875 -3.875 0.6875q-3.40625 0 -5.25 -1.671875q-1.828125 -1.671875 -1.828125 -4.265625q0 -1.53125 0.6875 -2.78125q0.6875 -1.265625 1.8125 -2.015625q1.125 -0.765625 2.53125 -1.15625q1.03125 -0.28125 3.125 -0.53125q4.265625 -0.515625 6.265625 -1.21875q0.03125 -0.71875 0.03125 -0.90625q0 -2.15625 -1.0 -3.03125q-1.34375 -1.1875 -4.0 -1.1875q-2.484375 0 -3.671875 0.875q-1.171875 0.859375 -1.75 3.0625l-3.4375 -0.46875q0.46875 -2.203125 1.546875 -3.5625q1.078125 -1.359375 3.109375 -2.09375q2.03125 -0.734375 4.703125 -0.734375q2.65625 0 4.3125 0.625q1.671875 0.625 2.453125 1.578125q0.78125 0.953125 1.09375 2.390625q0.171875 0.90625 0.171875 3.25l0 4.6875q0 4.890625 0.21875 6.203125q0.234375 1.296875 0.890625 2.484375l-3.671875 0q-0.546875 -1.09375 -0.703125 -2.5625zm-0.296875 -7.84375q-1.90625 0.78125 -5.734375 1.328125q-2.171875 0.3125 -3.078125 0.703125q-0.890625 0.390625 -1.375 1.140625q-0.484375 0.75 -0.484375 1.671875q0 1.40625 1.0625 2.34375q1.0625 0.9375 3.109375 0.9375q2.03125 0 3.609375 -0.890625q1.59375 -0.890625 2.328125 -2.4375q0.5625 -1.1875 0.5625 -3.515625l0 -1.28125zm9.011719 10.40625l0 -20.75l3.15625 0l0 2.953125q2.296875 -3.421875 6.609375 -3.421875q1.875 0 3.4375 0.6875q1.578125 0.671875 2.359375 1.765625q0.78125 1.09375 1.09375 2.59375q0.203125 0.96875 0.203125 3.421875l0 12.75l-3.515625 0l0 -12.625q0 -2.140625 -0.421875 -3.203125q-0.40625 -1.0625 -1.453125 -1.703125q-1.046875 -0.640625 -2.453125 -0.640625q-2.234375 0 -3.875 1.4375q-1.625 1.421875 -1.625 5.40625l0 11.328125l-3.515625 0zm45.625 0l-3.515625 0l0 -22.40625q-1.265625 1.21875 -3.328125 2.4375q-2.0625 1.203125 -3.703125 1.796875l0 -3.390625q2.953125 -1.390625 5.15625 -3.359375q2.203125 -1.96875 3.125 -3.828125l2.265625 0l0 28.75zm22.246094 0l-3.515625 0l0 -22.40625q-1.265625 1.21875 -3.328125 2.4375q-2.0625 1.203125 -3.703125 1.796875l0 -3.390625q2.953125 -1.390625 5.15625 -3.359375q2.203125 -1.96875 3.125 -3.828125l2.265625 0l0 28.75z" fill-rule="nonzero"></path><path fill="#ffffff" d="m446.64212 274.59845l3.578125 -0.3125q0.25 2.15625 1.171875 3.53125q0.9375 1.375 2.890625 2.234375q1.953125 0.84375 4.390625 0.84375q2.171875 0 3.828125 -0.640625q1.65625 -0.65625 2.46875 -1.78125q0.8125 -1.125 0.8125 -2.453125q0 -1.34375 -0.78125 -2.34375q-0.78125 -1.015625 -2.578125 -1.6875q-1.15625 -0.453125 -5.109375 -1.390625q-3.9375 -0.953125 -5.515625 -1.796875q-2.046875 -1.078125 -3.0625 -2.671875q-1.0 -1.59375 -1.0 -3.5625q0 -2.171875 1.234375 -4.046875q1.234375 -1.890625 3.59375 -2.859375q2.359375 -0.984375 5.25 -0.984375q3.1875 0 5.609375 1.03125q2.4375 1.015625 3.75 3.015625q1.3125 1.984375 1.40625 4.515625l-3.640625 0.265625q-0.28125 -2.71875 -1.984375 -4.09375q-1.6875 -1.390625 -4.984375 -1.390625q-3.4375 0 -5.015625 1.265625q-1.5625 1.25 -1.5625 3.03125q0 1.546875 1.109375 2.53125q1.09375 1.0 5.703125 2.046875q4.625 1.046875 6.34375 1.828125q2.5 1.15625 3.6875 2.921875q1.203125 1.765625 1.203125 4.0625q0 2.296875 -1.3125 4.3125q-1.3125 2.015625 -3.765625 3.140625q-2.4375 1.125 -5.515625 1.125q-3.875 0 -6.515625 -1.125q-2.625 -1.140625 -4.125 -3.40625q-1.484375 -2.28125 -1.5625 -5.15625zm27.523438 17.15625l0 -28.703125l3.203125 0l0 2.703125q1.125 -1.578125 2.546875 -2.375q1.4375 -0.796875 3.46875 -0.796875q2.65625 0 4.6875 1.375q2.03125 1.359375 3.0625 3.859375q1.03125 2.484375 1.03125 5.453125q0 3.1875 -1.140625 5.734375q-1.140625 2.546875 -3.328125 3.90625q-2.171875 1.359375 -4.5625 1.359375q-1.765625 0 -3.171875 -0.734375q-1.390625 -0.75 -2.28125 -1.890625l0 10.109375l-3.515625 0zm3.1875 -18.203125q0 4.0 1.609375 5.921875q1.625 1.90625 3.9375 1.90625q2.34375 0 4.0 -1.984375q1.671875 -1.984375 1.671875 -6.140625q0 -3.96875 -1.625 -5.9375q-1.625 -1.96875 -3.890625 -1.96875q-2.25 0 -3.984375 2.09375q-1.71875 2.09375 -1.71875 6.109375zm32.589844 7.6875q-1.953125 1.65625 -3.765625 2.34375q-1.796875 0.6875 -3.875 0.6875q-3.40625 0 -5.25 -1.671875q-1.828125 -1.671875 -1.828125 -4.265625q0 -1.53125 0.6875 -2.78125q0.6875 -1.265625 1.8125 -2.015625q1.125 -0.765625 2.53125 -1.15625q1.03125 -0.28125 3.125 -0.53125q4.265625 -0.515625 6.265625 -1.21875q0.03125 -0.71875 0.03125 -0.90625q0 -2.15625 -1.0 -3.03125q-1.34375 -1.1875 -4.0 -1.1875q-2.484375 0 -3.671875 0.875q-1.171875 0.859375 -1.75 3.0625l-3.4375 -0.46875q0.46875 -2.203125 1.546875 -3.5625q1.078125 -1.359375 3.109375 -2.09375q2.03125 -0.734375 4.703125 -0.734375q2.65625 0 4.3125 0.625q1.671875 0.625 2.453125 1.578125q0.7812195 0.953125 1.0937195 2.390625q0.171875 0.90625 0.171875 3.25l0 4.6875q0 4.890625 0.21875 6.203125q0.234375 1.296875 0.890625 2.484375l-3.6718445 0q-0.546875 -1.09375 -0.703125 -2.5625zm-0.296875 -7.84375q-1.90625 0.78125 -5.734375 1.328125q-2.171875 0.3125 -3.078125 0.703125q-0.890625 0.390625 -1.375 1.140625q-0.484375 0.75 -0.484375 1.671875q0 1.40625 1.0625 2.34375q1.0625 0.9375 3.109375 0.9375q2.03125 0 3.609375 -0.890625q1.59375 -0.890625 2.328125 -2.4375q0.5625 -1.1875 0.5625 -3.515625l0 -1.28125zm9.011688 10.40625l0 -20.75l3.15625 0l0 2.953125q2.296875 -3.421875 6.609375 -3.421875q1.875 0 3.4375 0.6875q1.578125 0.671875 2.359375 1.765625q0.78125 1.09375 1.09375 2.59375q0.203125 0.96875 0.203125 3.421875l0 12.75l-3.515625 0l0 -12.625q0 -2.140625 -0.421875 -3.203125q-0.40625 -1.0625 -1.453125 -1.703125q-1.046875 -0.640625 -2.453125 -0.640625q-2.234375 0 -3.875 1.4375q-1.625 1.421875 -1.625 5.40625l0 11.328125l-3.515625 0zm45.625 0l-3.515625 0l0 -22.40625q-1.265625 1.21875 -3.328125 2.4375q-2.0625 1.203125 -3.703125 1.796875l0 -3.390625q2.953125 -1.390625 5.15625 -3.359375q2.203125 -1.96875 3.125 -3.828125l2.265625 0l0 28.75zm27.480469 -3.375l0 3.375l-18.921875 0q-0.046875 -1.265625 0.40625 -2.4375q0.71875 -1.9375 2.3125 -3.8125q1.59375 -1.875 4.59375 -4.34375q4.671875 -3.828125 6.3125 -6.0625q1.640625 -2.234375 1.640625 -4.21875q0 -2.09375 -1.5 -3.53125q-1.484375 -1.4375 -3.890625 -1.4375q-2.53125 0 -4.0625 1.53125q-1.515625 1.515625 -1.546875 4.21875l-3.609375 -0.375q0.375 -4.046875 2.796875 -6.15625q2.421875 -2.125 6.5 -2.125q4.125 0 6.515625 2.28125q2.40625 2.28125 2.40625 5.671875q0 1.71875 -0.703125 3.375q-0.703125 1.65625 -2.328125 3.5q-1.625 1.828125 -5.421875 5.03125q-3.15625 2.65625 -4.0625 3.609375q-0.890625 0.9375 -1.484375 1.90625l14.046875 0z" fill-rule="nonzero"></path><path fill="#ffffff" d="m663.4741 274.59845l3.578125 -0.3125q0.25 2.15625 1.171875 3.53125q0.9375 1.375 2.890625 2.234375q1.953125 0.84375 4.390625 0.84375q2.171875 0 3.828125 -0.640625q1.65625 -0.65625 2.46875 -1.78125q0.8125 -1.125 0.8125 -2.453125q0 -1.34375 -0.78125 -2.34375q-0.78125 -1.015625 -2.578125 -1.6875q-1.15625 -0.453125 -5.109375 -1.390625q-3.9375 -0.953125 -5.515625 -1.796875q-2.046875 -1.078125 -3.0625 -2.671875q-1.0 -1.59375 -1.0 -3.5625q0 -2.171875 1.234375 -4.046875q1.234375 -1.890625 3.59375 -2.859375q2.359375 -0.984375 5.25 -0.984375q3.1875 0 5.609375 1.03125q2.4375 1.015625 3.75 3.015625q1.3125 1.984375 1.40625 4.515625l-3.640625 0.265625q-0.28125 -2.71875 -1.984375 -4.09375q-1.6875 -1.390625 -4.984375 -1.390625q-3.4375 0 -5.015625 1.265625q-1.5625 1.25 -1.5625 3.03125q0 1.546875 1.109375 2.53125q1.09375 1.0 5.703125 2.046875q4.625 1.046875 6.34375 1.828125q2.5 1.15625 3.6875 2.921875q1.203125 1.765625 1.203125 4.0625q0 2.296875 -1.3125 4.3125q-1.3125 2.015625 -3.765625 3.140625q-2.4375 1.125 -5.515625 1.125q-3.875 0 -6.515625 -1.125q-2.625 -1.140625 -4.125 -3.40625q-1.484375 -2.28125 -1.5625 -5.15625zm27.523438 17.15625l0 -28.703125l3.203125 0l0 2.703125q1.125 -1.578125 2.546875 -2.375q1.4375 -0.796875 3.46875 -0.796875q2.65625 0 4.6875 1.375q2.03125 1.359375 3.0625 3.859375q1.03125 2.484375 1.03125 5.453125q0 3.1875 -1.140625 5.734375q-1.140625 2.546875 -3.328125 3.90625q-2.171875 1.359375 -4.5625 1.359375q-1.765625 0 -3.171875 -0.734375q-1.390625 -0.75 -2.28125 -1.890625l0 10.109375l-3.515625 0zm3.1875 -18.203125q0 4.0 1.609375 5.921875q1.625 1.90625 3.9375 1.90625q2.34375 0 4.0 -1.984375q1.671875 -1.984375 1.671875 -6.140625q0 -3.96875 -1.625 -5.9375q-1.625 -1.96875 -3.890625 -1.96875q-2.25 0 -3.984375 2.09375q-1.71875 2.09375 -1.71875 6.109375zm32.589844 7.6875q-1.953125 1.65625 -3.765625 2.34375q-1.796875 0.6875 -3.875 0.6875q-3.40625 0 -5.25 -1.671875q-1.828125 -1.671875 -1.828125 -4.265625q0 -1.53125 0.6875 -2.78125q0.6875 -1.265625 1.8125 -2.015625q1.125 -0.765625 2.53125 -1.15625q1.03125 -0.28125 3.125 -0.53125q4.265625 -0.515625 6.265625 -1.21875q0.03125 -0.71875 0.03125 -0.90625q0 -2.15625 -1.0 -3.03125q-1.34375 -1.1875 -4.0 -1.1875q-2.484375 0 -3.671875 0.875q-1.171875 0.859375 -1.75 3.0625l-3.4375 -0.46875q0.46875 -2.203125 1.546875 -3.5625q1.078125 -1.359375 3.109375 -2.09375q2.03125 -0.734375 4.703125 -0.734375q2.65625 0 4.3125 0.625q1.671875 0.625 2.453125 1.578125q0.78125 0.953125 1.09375 2.390625q0.171875 0.90625 0.171875 3.25l0 4.6875q0 4.890625 0.21875 6.203125q0.234375 1.296875 0.890625 2.484375l-3.671875 0q-0.546875 -1.09375 -0.703125 -2.5625zm-0.296875 -7.84375q-1.90625 0.78125 -5.734375 1.328125q-2.171875 0.3125 -3.078125 0.703125q-0.890625 0.390625 -1.375 1.140625q-0.484375 0.75 -0.484375 1.671875q0 1.40625 1.0625 2.34375q1.0625 0.9375 3.109375 0.9375q2.03125 0 3.609375 -0.890625q1.59375 -0.890625 2.328125 -2.4375q0.5625 -1.1875 0.5625 -3.515625l0 -1.28125zm9.011719 10.40625l0 -20.75l3.15625 0l0 2.953125q2.296875 -3.421875 6.609375 -3.421875q1.875 0 3.4375 0.6875q1.578125 0.671875 2.359375 1.765625q0.78125 1.09375 1.09375 2.59375q0.203125 0.96875 0.203125 3.421875l0 12.75l-3.515625 0l0 -12.625q0 -2.140625 -0.421875 -3.203125q-0.40625 -1.0625 -1.453125 -1.703125q-1.046875 -0.640625 -2.453125 -0.640625q-2.234375 0 -3.875 1.4375q-1.625 1.421875 -1.625 5.40625l0 11.328125l-3.515625 0zm45.625 0l-3.515625 0l0 -22.40625q-1.265625 1.21875 -3.328125 2.4375q-2.0625 1.203125 -3.703125 1.796875l0 -3.390625q2.953125 -1.390625 5.15625 -3.359375q2.203125 -1.96875 3.125 -3.828125l2.265625 0l0 28.75zm9.027344 -7.5625l3.515625 -0.46875q0.59375 2.984375 2.046875 4.3125q1.46875 1.3125 3.546875 1.3125q2.484375 0 4.1875 -1.71875q1.71875 -1.71875 1.71875 -4.25q0 -2.421875 -1.59375 -4.0q-1.578125 -1.578125 -4.015625 -1.578125q-1.0 0 -2.484375 0.390625l0.390625 -3.078125q0.359375 0.03125 0.578125 0.03125q2.234375 0 4.03125 -1.171875q1.796875 -1.171875 1.796875 -3.609375q0 -1.9375 -1.3125 -3.203125q-1.296875 -1.265625 -3.375 -1.265625q-2.046875 0 -3.421875 1.296875q-1.359375 1.28125 -1.75 3.859375l-3.515625 -0.625q0.640625 -3.53125 2.921875 -5.46875q2.296875 -1.953125 5.6875 -1.953125q2.34375 0 4.3125 1.015625q1.984375 1.0 3.03125 2.734375q1.046875 1.734375 1.046875 3.6875q0 1.859375 -1.0 3.390625q-1.0 1.515625 -2.953125 2.40625q2.546875 0.59375 3.953125 2.4375q1.40625 1.84375 1.40625 4.625q0 3.75 -2.734375 6.359375q-2.734375 2.609375 -6.921875 2.609375q-3.765625 0 -6.265625 -2.25q-2.484375 -2.25 -2.828125 -5.828125z" fill-rule="nonzero"></path><path fill="#ffffff" d="m868.4223 283.80157l0 -4.0l4.0 0l0 4.0l-4.0 0zm13.34375 0l0 -4.0l4.0 0l0 4.0l-4.0 0zm13.3125 0l0 -4.0l4.03125 0l0 4.0l-4.03125 0zm12.3125 0l0 -4.0l4.0 0l0 4.0l-4.0 0z" fill-rule="nonzero"></path><path fill="#ffffff" d="m51.72159 350.9984l5.296875 -25.375l-9.390625 0l0.6875 -3.265625l22.53125 0l-0.6875 3.265625l-9.3125 0l-5.296875 25.375l-3.828125 0zm16.683594 0l4.34375 -20.75l3.125 0l-0.890625 4.25q1.609375 -2.40625 3.140625 -3.5625q1.53125 -1.15625 3.140625 -1.15625q1.046875 0 2.59375 0.765625l-1.453125 3.28125q-0.90625 -0.65625 -2.0 -0.65625q-1.859375 0 -3.8125 2.078125q-1.953125 2.0625 -3.0625 7.421875l-1.765625 8.328125l-3.359375 0zm27.304688 -2.578125q-1.828125 1.578125 -3.53125 2.3125q-1.703125 0.734375 -3.640625 0.734375q-2.859375 0 -4.625 -1.6875q-1.75 -1.6875 -1.75 -4.328125q0 -1.734375 0.78125 -3.078125q0.796875 -1.34375 2.09375 -2.140625q1.3125 -0.8125 3.21875 -1.171875q1.1875 -0.234375 4.515625 -0.359375q3.328125 -0.140625 4.78125 -0.71875q0.40625 -1.4375 0.40625 -2.390625q0 -1.234375 -0.90625 -1.9375q-1.21875 -0.984375 -3.59375 -0.984375q-2.21875 0 -3.640625 1.0q-1.40625 0.984375 -2.0625 2.796875l-3.5625 -0.3125q1.09375 -3.09375 3.453125 -4.734375q2.375 -1.640625 6.0 -1.640625q3.84375 0 6.09375 1.84375q1.71875 1.359375 1.71875 3.546875q0 1.671875 -0.5 3.859375l-1.140625 5.15625q-0.546875 2.453125 -0.546875 4.0q0 0.96875 0.421875 2.8125l-3.578125 0q-0.28125 -1.015625 -0.40625 -2.578125zm1.3125 -7.9375q-0.75 0.296875 -1.59375 0.453125q-0.84375 0.15625 -2.84375 0.328125q-3.078125 0.28125 -4.359375 0.703125q-1.265625 0.421875 -1.90625 1.34375q-0.640625 0.90625 -0.640625 2.015625q0 1.484375 1.015625 2.453125q1.03125 0.953125 2.921875 0.953125q1.765625 0 3.375 -0.921875q1.625 -0.9375 2.5625 -2.59375q0.9375 -1.65625 1.46875 -4.734375zm21.261719 2.953125l3.546875 0.375q-1.328125 3.890625 -3.78125 5.78125q-2.453125 1.875 -5.578125 1.875q-3.375 0 -5.484375 -2.1875q-2.09375 -2.1875 -2.09375 -6.109375q0 -3.40625 1.34375 -6.6875q1.34375 -3.28125 3.859375 -4.984375q2.515625 -1.71875 5.734375 -1.71875q3.34375 0 5.296875 1.890625q1.953125 1.890625 1.953125 4.984375l-3.484375 0.234375q-0.015625 -1.96875 -1.140625 -3.078125q-1.125 -1.109375 -2.953125 -1.109375q-2.140625 0 -3.703125 1.34375q-1.5625 1.34375 -2.453125 4.09375q-0.875 2.734375 -0.875 5.28125q0 2.65625 1.171875 3.984375q1.171875 1.328125 2.890625 1.328125q1.71875 0 3.28125 -1.3125q1.578125 -1.3125 2.46875 -3.984375zm20.921875 0.515625l3.4375 0.34375q-0.734375 2.5625 -3.40625 4.875q-2.671875 2.296875 -6.359375 2.296875q-2.296875 0 -4.234375 -1.0625q-1.921875 -1.0625 -2.921875 -3.09375q-1.0 -2.03125 -1.0 -4.640625q0 -3.390625 1.5625 -6.578125q1.578125 -3.203125 4.078125 -4.75q2.5 -1.5625 5.40625 -1.5625q3.71875 0 5.921875 2.3125q2.21875 2.296875 2.21875 6.28125q0 1.53125 -0.265625 3.125l-15.28125 0q-0.078125 0.609375 -0.078125 1.09375q0 2.921875 1.34375 4.453125q1.34375 1.53125 3.265625 1.53125q1.828125 0 3.578125 -1.1875q1.765625 -1.203125 2.734375 -3.4375zm-10.265625 -5.140625l11.640625 0q0.015625 -0.546875 0.015625 -0.78125q0 -2.65625 -1.328125 -4.0625q-1.328125 -1.421875 -3.421875 -1.421875q-2.265625 0 -4.140625 1.5625q-1.859375 1.5625 -2.765625 4.703125zm29.40625 12.1875q0.546875 -2.5625 1.515625 -4.28125q0.96875 -1.734375 2.5625 -3.28125q1.609375 -1.5625 6.171875 -5.21875q2.78125 -2.203125 3.796875 -3.25q1.46875 -1.53125 2.125 -3.0q0.453125 -0.984375 0.453125 -2.15625q0 -1.984375 -1.40625 -3.359375q-1.390625 -1.375 -3.421875 -1.375q-2.015625 0 -3.515625 1.40625q-1.5 1.390625 -2.140625 4.46875l-3.46875 -0.5q0.515625 -3.8125 2.96875 -6.0q2.453125 -2.203125 6.09375 -2.203125q2.453125 0 4.421875 1.015625q1.984375 1.015625 2.984375 2.859375q1.0 1.828125 1.0 3.78125q0 2.84375 -2.03125 5.484375q-1.25 1.640625 -7.34375 6.46875q-2.625 2.0625 -3.90625 3.390625q-1.265625 1.328125 -1.921875 2.5l12.8125 0l-0.671875 3.25l-17.078125 0z" fill-rule="nonzero"></path><path fill="#ffffff" d="m230.20642 341.7953l3.578125 -0.3125q0.25 2.15625 1.171875 3.53125q0.9375 1.375 2.890625 2.234375q1.953125 0.84375 4.390625 0.84375q2.171875 0 3.828125 -0.640625q1.65625 -0.65625 2.46875 -1.78125q0.8125 -1.125 0.8125 -2.453125q0 -1.34375 -0.78125 -2.34375q-0.78125 -1.015625 -2.578125 -1.6875q-1.15625 -0.453125 -5.109375 -1.390625q-3.9375 -0.953125 -5.515625 -1.796875q-2.046875 -1.078125 -3.0625 -2.671875q-1.0 -1.59375 -1.0 -3.5625q0 -2.171875 1.234375 -4.046875q1.234375 -1.890625 3.59375 -2.859375q2.359375 -0.984375 5.25 -0.984375q3.1875 0 5.609375 1.03125q2.4375 1.015625 3.75 3.015625q1.3125 1.984375 1.40625 4.515625l-3.640625 0.265625q-0.28125 -2.71875 -1.984375 -4.09375q-1.6875 -1.390625 -4.984375 -1.390625q-3.4375 0 -5.015625 1.265625q-1.5625 1.25 -1.5625 3.03125q0 1.546875 1.109375 2.53125q1.09375 1.0 5.703125 2.046875q4.625 1.046875 6.34375 1.828125q2.5 1.15625 3.6875 2.921875q1.203125 1.765625 1.203125 4.0625q0 2.296875 -1.3125 4.3125q-1.3125 2.015625 -3.765625 3.140625q-2.4375 1.125 -5.515625 1.125q-3.875 0 -6.515625 -1.125q-2.625 -1.140625 -4.125 -3.40625q-1.484375 -2.28125 -1.5625 -5.15625zm27.523438 17.15625l0 -28.703125l3.203125 0l0 2.703125q1.125 -1.578125 2.546875 -2.375q1.4375 -0.796875 3.46875 -0.796875q2.65625 0 4.6875 1.375q2.03125 1.359375 3.0625 3.859375q1.03125 2.484375 1.03125 5.453125q0 3.1875 -1.140625 5.734375q-1.140625 2.546875 -3.328125 3.90625q-2.171875 1.359375 -4.5625 1.359375q-1.765625 0 -3.171875 -0.734375q-1.390625 -0.75 -2.28125 -1.890625l0 10.109375l-3.515625 0zm3.1875 -18.203125q0 4.0 1.609375 5.921875q1.625 1.90625 3.9375 1.90625q2.34375 0 4.0 -1.984375q1.671875 -1.984375 1.671875 -6.140625q0 -3.96875 -1.625 -5.9375q-1.625 -1.96875 -3.890625 -1.96875q-2.25 0 -3.984375 2.09375q-1.71875 2.09375 -1.71875 6.109375zm32.589844 7.6875q-1.953125 1.65625 -3.765625 2.34375q-1.796875 0.6875 -3.875 0.6875q-3.40625 0 -5.25 -1.671875q-1.828125 -1.671875 -1.828125 -4.265625q0 -1.53125 0.6875 -2.78125q0.6875 -1.265625 1.8125 -2.015625q1.125 -0.765625 2.53125 -1.15625q1.03125 -0.28125 3.125 -0.53125q4.265625 -0.515625 6.265625 -1.21875q0.03125 -0.71875 0.03125 -0.90625q0 -2.15625 -1.0 -3.03125q-1.34375 -1.1875 -4.0 -1.1875q-2.484375 0 -3.671875 0.875q-1.171875 0.859375 -1.75 3.0625l-3.4375 -0.46875q0.46875 -2.203125 1.546875 -3.5625q1.078125 -1.359375 3.109375 -2.09375q2.03125 -0.734375 4.703125 -0.734375q2.65625 0 4.3125 0.625q1.671875 0.625 2.453125 1.578125q0.78125 0.953125 1.09375 2.390625q0.171875 0.90625 0.171875 3.25l0 4.6875q0 4.890625 0.21875 6.203125q0.234375 1.296875 0.890625 2.484375l-3.671875 0q-0.546875 -1.09375 -0.703125 -2.5625zm-0.296875 -7.84375q-1.90625 0.78125 -5.734375 1.328125q-2.171875 0.3125 -3.078125 0.703125q-0.890625 0.390625 -1.375 1.140625q-0.484375 0.75 -0.484375 1.671875q0 1.40625 1.0625 2.34375q1.0625 0.9375 3.109375 0.9375q2.03125 0 3.609375 -0.890625q1.59375 -0.890625 2.328125 -2.4375q0.5625 -1.1875 0.5625 -3.515625l0 -1.28125zm9.011719 10.40625l0 -20.75l3.15625 0l0 2.953125q2.296875 -3.421875 6.609375 -3.421875q1.875 0 3.4375 0.6875q1.578125 0.671875 2.359375 1.765625q0.78125 1.09375 1.09375 2.59375q0.203125 0.96875 0.203125 3.421875l0 12.75l-3.515625 0l0 -12.625q0 -2.140625 -0.421875 -3.203125q-0.40625 -1.0625 -1.453125 -1.703125q-1.046875 -0.640625 -2.453125 -0.640625q-2.234375 0 -3.875 1.4375q-1.625 1.421875 -1.625 5.40625l0 11.328125l-3.515625 0zm50.859375 -3.375l0 3.375l-18.921875 0q-0.046875 -1.265625 0.40625 -2.4375q0.71875 -1.9375 2.3125 -3.8125q1.59375 -1.875 4.59375 -4.34375q4.671875 -3.828125 6.3125 -6.0625q1.640625 -2.234375 1.640625 -4.21875q0 -2.09375 -1.5 -3.53125q-1.484375 -1.4375 -3.890625 -1.4375q-2.53125 0 -4.0625 1.53125q-1.515625 1.515625 -1.546875 4.21875l-3.609375 -0.375q0.375 -4.046875 2.796875 -6.15625q2.421875 -2.125 6.5 -2.125q4.125 0 6.515625 2.28125q2.40625 2.28125 2.40625 5.671875q0 1.71875 -0.703125 3.375q-0.703125 1.65625 -2.328125 3.5q-1.625 1.828125 -5.421875 5.03125q-3.15625 2.65625 -4.0625 3.609375q-0.890625 0.9375 -1.484375 1.90625l14.046875 0zm17.011719 3.375l-3.515625 0l0 -22.40625q-1.265625 1.21875 -3.328125 2.4375q-2.0625 1.203125 -3.703125 1.796875l0 -3.390625q2.953125 -1.390625 5.15625 -3.359375q2.203125 -1.96875 3.125 -3.828125l2.265625 0l0 28.75z" fill-rule="nonzero"></path><path fill="#ffffff" d="m446.64212 341.7953l3.578125 -0.3125q0.25 2.15625 1.171875 3.53125q0.9375 1.375 2.890625 2.234375q1.953125 0.84375 4.390625 0.84375q2.171875 0 3.828125 -0.640625q1.65625 -0.65625 2.46875 -1.78125q0.8125 -1.125 0.8125 -2.453125q0 -1.34375 -0.78125 -2.34375q-0.78125 -1.015625 -2.578125 -1.6875q-1.15625 -0.453125 -5.109375 -1.390625q-3.9375 -0.953125 -5.515625 -1.796875q-2.046875 -1.078125 -3.0625 -2.671875q-1.0 -1.59375 -1.0 -3.5625q0 -2.171875 1.234375 -4.046875q1.234375 -1.890625 3.59375 -2.859375q2.359375 -0.984375 5.25 -0.984375q3.1875 0 5.609375 1.03125q2.4375 1.015625 3.75 3.015625q1.3125 1.984375 1.40625 4.515625l-3.640625 0.265625q-0.28125 -2.71875 -1.984375 -4.09375q-1.6875 -1.390625 -4.984375 -1.390625q-3.4375 0 -5.015625 1.265625q-1.5625 1.25 -1.5625 3.03125q0 1.546875 1.109375 2.53125q1.09375 1.0 5.703125 2.046875q4.625 1.046875 6.34375 1.828125q2.5 1.15625 3.6875 2.921875q1.203125 1.765625 1.203125 4.0625q0 2.296875 -1.3125 4.3125q-1.3125 2.015625 -3.765625 3.140625q-2.4375 1.125 -5.515625 1.125q-3.875 0 -6.515625 -1.125q-2.625 -1.140625 -4.125 -3.40625q-1.484375 -2.28125 -1.5625 -5.15625zm27.523438 17.15625l0 -28.703125l3.203125 0l0 2.703125q1.125 -1.578125 2.546875 -2.375q1.4375 -0.796875 3.46875 -0.796875q2.65625 0 4.6875 1.375q2.03125 1.359375 3.0625 3.859375q1.03125 2.484375 1.03125 5.453125q0 3.1875 -1.140625 5.734375q-1.140625 2.546875 -3.328125 3.90625q-2.171875 1.359375 -4.5625 1.359375q-1.765625 0 -3.171875 -0.734375q-1.390625 -0.75 -2.28125 -1.890625l0 10.109375l-3.515625 0zm3.1875 -18.203125q0 4.0 1.609375 5.921875q1.625 1.90625 3.9375 1.90625q2.34375 0 4.0 -1.984375q1.671875 -1.984375 1.671875 -6.140625q0 -3.96875 -1.625 -5.9375q-1.625 -1.96875 -3.890625 -1.96875q-2.25 0 -3.984375 2.09375q-1.71875 2.09375 -1.71875 6.109375zm32.589844 7.6875q-1.953125 1.65625 -3.765625 2.34375q-1.796875 0.6875 -3.875 0.6875q-3.40625 0 -5.25 -1.671875q-1.828125 -1.671875 -1.828125 -4.265625q0 -1.53125 0.6875 -2.78125q0.6875 -1.265625 1.8125 -2.015625q1.125 -0.765625 2.53125 -1.15625q1.03125 -0.28125 3.125 -0.53125q4.265625 -0.515625 6.265625 -1.21875q0.03125 -0.71875 0.03125 -0.90625q0 -2.15625 -1.0 -3.03125q-1.34375 -1.1875 -4.0 -1.1875q-2.484375 0 -3.671875 0.875q-1.171875 0.859375 -1.75 3.0625l-3.4375 -0.46875q0.46875 -2.203125 1.546875 -3.5625q1.078125 -1.359375 3.109375 -2.09375q2.03125 -0.734375 4.703125 -0.734375q2.65625 0 4.3125 0.625q1.671875 0.625 2.453125 1.578125q0.7812195 0.953125 1.0937195 2.390625q0.171875 0.90625 0.171875 3.25l0 4.6875q0 4.890625 0.21875 6.203125q0.234375 1.296875 0.890625 2.484375l-3.6718445 0q-0.546875 -1.09375 -0.703125 -2.5625zm-0.296875 -7.84375q-1.90625 0.78125 -5.734375 1.328125q-2.171875 0.3125 -3.078125 0.703125q-0.890625 0.390625 -1.375 1.140625q-0.484375 0.75 -0.484375 1.671875q0 1.40625 1.0625 2.34375q1.0625 0.9375 3.109375 0.9375q2.03125 0 3.609375 -0.890625q1.59375 -0.890625 2.328125 -2.4375q0.5625 -1.1875 0.5625 -3.515625l0 -1.28125zm9.011688 10.40625l0 -20.75l3.15625 0l0 2.953125q2.296875 -3.421875 6.609375 -3.421875q1.875 0 3.4375 0.6875q1.578125 0.671875 2.359375 1.765625q0.78125 1.09375 1.09375 2.59375q0.203125 0.96875 0.203125 3.421875l0 12.75l-3.515625 0l0 -12.625q0 -2.140625 -0.421875 -3.203125q-0.40625 -1.0625 -1.453125 -1.703125q-1.046875 -0.640625 -2.453125 -0.640625q-2.234375 0 -3.875 1.4375q-1.625 1.421875 -1.625 5.40625l0 11.328125l-3.515625 0zm50.859375 -3.375l0 3.375l-18.921875 0q-0.046875 -1.265625 0.40625 -2.4375q0.71875 -1.9375 2.3125 -3.8125q1.59375 -1.875 4.59375 -4.34375q4.671875 -3.828125 6.3125 -6.0625q1.640625 -2.234375 1.640625 -4.21875q0 -2.09375 -1.5 -3.53125q-1.484375 -1.4375 -3.890625 -1.4375q-2.53125 0 -4.0625 1.53125q-1.515625 1.515625 -1.546875 4.21875l-3.609375 -0.375q0.375 -4.046875 2.796875 -6.15625q2.421875 -2.125 6.5 -2.125q4.125 0 6.515625 2.28125q2.40625 2.28125 2.40625 5.671875q0 1.71875 -0.703125 3.375q-0.703125 1.65625 -2.328125 3.5q-1.625 1.828125 -5.421875 5.03125q-3.15625 2.65625 -4.0625 3.609375q-0.890625 0.9375 -1.484375 1.90625l14.046875 0zm22.246094 0l0 3.375l-18.921875 0q-0.046875 -1.265625 0.40625 -2.4375q0.71875 -1.9375 2.3125 -3.8125q1.59375 -1.875 4.59375 -4.34375q4.671875 -3.828125 6.3125 -6.0625q1.640625 -2.234375 1.640625 -4.21875q0 -2.09375 -1.5 -3.53125q-1.484375 -1.4375 -3.890625 -1.4375q-2.53125 0 -4.0625 1.53125q-1.515625 1.515625 -1.546875 4.21875l-3.609375 -0.375q0.375 -4.046875 2.796875 -6.15625q2.421875 -2.125 6.5 -2.125q4.125 0 6.515625 2.28125q2.40625 2.28125 2.40625 5.671875q0 1.71875 -0.703125 3.375q-0.703125 1.65625 -2.328125 3.5q-1.625 1.828125 -5.421875 5.03125q-3.15625 2.65625 -4.0625 3.609375q-0.890625 0.9375 -1.484375 1.90625l14.046875 0z" fill-rule="nonzero"></path><path fill="#ffffff" d="m663.4741 341.7953l3.578125 -0.3125q0.25 2.15625 1.171875 3.53125q0.9375 1.375 2.890625 2.234375q1.953125 0.84375 4.390625 0.84375q2.171875 0 3.828125 -0.640625q1.65625 -0.65625 2.46875 -1.78125q0.8125 -1.125 0.8125 -2.453125q0 -1.34375 -0.78125 -2.34375q-0.78125 -1.015625 -2.578125 -1.6875q-1.15625 -0.453125 -5.109375 -1.390625q-3.9375 -0.953125 -5.515625 -1.796875q-2.046875 -1.078125 -3.0625 -2.671875q-1.0 -1.59375 -1.0 -3.5625q0 -2.171875 1.234375 -4.046875q1.234375 -1.890625 3.59375 -2.859375q2.359375 -0.984375 5.25 -0.984375q3.1875 0 5.609375 1.03125q2.4375 1.015625 3.75 3.015625q1.3125 1.984375 1.40625 4.515625l-3.640625 0.265625q-0.28125 -2.71875 -1.984375 -4.09375q-1.6875 -1.390625 -4.984375 -1.390625q-3.4375 0 -5.015625 1.265625q-1.5625 1.25 -1.5625 3.03125q0 1.546875 1.109375 2.53125q1.09375 1.0 5.703125 2.046875q4.625 1.046875 6.34375 1.828125q2.5 1.15625 3.6875 2.921875q1.203125 1.765625 1.203125 4.0625q0 2.296875 -1.3125 4.3125q-1.3125 2.015625 -3.765625 3.140625q-2.4375 1.125 -5.515625 1.125q-3.875 0 -6.515625 -1.125q-2.625 -1.140625 -4.125 -3.40625q-1.484375 -2.28125 -1.5625 -5.15625zm27.523438 17.15625l0 -28.703125l3.203125 0l0 2.703125q1.125 -1.578125 2.546875 -2.375q1.4375 -0.796875 3.46875 -0.796875q2.65625 0 4.6875 1.375q2.03125 1.359375 3.0625 3.859375q1.03125 2.484375 1.03125 5.453125q0 3.1875 -1.140625 5.734375q-1.140625 2.546875 -3.328125 3.90625q-2.171875 1.359375 -4.5625 1.359375q-1.765625 0 -3.171875 -0.734375q-1.390625 -0.75 -2.28125 -1.890625l0 10.109375l-3.515625 0zm3.1875 -18.203125q0 4.0 1.609375 5.921875q1.625 1.90625 3.9375 1.90625q2.34375 0 4.0 -1.984375q1.671875 -1.984375 1.671875 -6.140625q0 -3.96875 -1.625 -5.9375q-1.625 -1.96875 -3.890625 -1.96875q-2.25 0 -3.984375 2.09375q-1.71875 2.09375 -1.71875 6.109375zm32.589844 7.6875q-1.953125 1.65625 -3.765625 2.34375q-1.796875 0.6875 -3.875 0.6875q-3.40625 0 -5.25 -1.671875q-1.828125 -1.671875 -1.828125 -4.265625q0 -1.53125 0.6875 -2.78125q0.6875 -1.265625 1.8125 -2.015625q1.125 -0.765625 2.53125 -1.15625q1.03125 -0.28125 3.125 -0.53125q4.265625 -0.515625 6.265625 -1.21875q0.03125 -0.71875 0.03125 -0.90625q0 -2.15625 -1.0 -3.03125q-1.34375 -1.1875 -4.0 -1.1875q-2.484375 0 -3.671875 0.875q-1.171875 0.859375 -1.75 3.0625l-3.4375 -0.46875q0.46875 -2.203125 1.546875 -3.5625q1.078125 -1.359375 3.109375 -2.09375q2.03125 -0.734375 4.703125 -0.734375q2.65625 0 4.3125 0.625q1.671875 0.625 2.453125 1.578125q0.78125 0.953125 1.09375 2.390625q0.171875 0.90625 0.171875 3.25l0 4.6875q0 4.890625 0.21875 6.203125q0.234375 1.296875 0.890625 2.484375l-3.671875 0q-0.546875 -1.09375 -0.703125 -2.5625zm-0.296875 -7.84375q-1.90625 0.78125 -5.734375 1.328125q-2.171875 0.3125 -3.078125 0.703125q-0.890625 0.390625 -1.375 1.140625q-0.484375 0.75 -0.484375 1.671875q0 1.40625 1.0625 2.34375q1.0625 0.9375 3.109375 0.9375q2.03125 0 3.609375 -0.890625q1.59375 -0.890625 2.328125 -2.4375q0.5625 -1.1875 0.5625 -3.515625l0 -1.28125zm9.011719 10.40625l0 -20.75l3.15625 0l0 2.953125q2.296875 -3.421875 6.609375 -3.421875q1.875 0 3.4375 0.6875q1.578125 0.671875 2.359375 1.765625q0.78125 1.09375 1.09375 2.59375q0.203125 0.96875 0.203125 3.421875l0 12.75l-3.515625 0l0 -12.625q0 -2.140625 -0.421875 -3.203125q-0.40625 -1.0625 -1.453125 -1.703125q-1.046875 -0.640625 -2.453125 -0.640625q-2.234375 0 -3.875 1.4375q-1.625 1.421875 -1.625 5.40625l0 11.328125l-3.515625 0zm50.859375 -3.375l0 3.375l-18.921875 0q-0.046875 -1.265625 0.40625 -2.4375q0.71875 -1.9375 2.3125 -3.8125q1.59375 -1.875 4.59375 -4.34375q4.671875 -3.828125 6.3125 -6.0625q1.640625 -2.234375 1.640625 -4.21875q0 -2.09375 -1.5 -3.53125q-1.484375 -1.4375 -3.890625 -1.4375q-2.53125 0 -4.0625 1.53125q-1.515625 1.515625 -1.546875 4.21875l-3.609375 -0.375q0.375 -4.046875 2.796875 -6.15625q2.421875 -2.125 6.5 -2.125q4.125 0 6.515625 2.28125q2.40625 2.28125 2.40625 5.671875q0 1.71875 -0.703125 3.375q-0.703125 1.65625 -2.328125 3.5q-1.625 1.828125 -5.421875 5.03125q-3.15625 2.65625 -4.0625 3.609375q-0.890625 0.9375 -1.484375 1.90625l14.046875 0zm22.246094 0l0 3.375l-18.921875 0q-0.046875 -1.265625 0.40625 -2.4375q0.71875 -1.9375 2.3125 -3.8125q1.59375 -1.875 4.59375 -4.34375q4.671875 -3.828125 6.3125 -6.0625q1.640625 -2.234375 1.640625 -4.21875q0 -2.09375 -1.5 -3.53125q-1.484375 -1.4375 -3.890625 -1.4375q-2.53125 0 -4.0625 1.53125q-1.515625 1.515625 -1.546875 4.21875l-3.609375 -0.375q0.375 -4.046875 2.796875 -6.15625q2.421875 -2.125 6.5 -2.125q4.125 0 6.515625 2.28125q2.40625 2.28125 2.40625 5.671875q0 1.71875 -0.703125 3.375q-0.703125 1.65625 -2.328125 3.5q-1.625 1.828125 -5.421875 5.03125q-3.15625 2.65625 -4.0625 3.609375q-0.890625 0.9375 -1.484375 1.90625l14.046875 0z" fill-rule="nonzero"></path><path fill="#ffffff" d="m868.4223 350.9984l0 -4.0l4.0 0l0 4.0l-4.0 0zm13.34375 0l0 -4.0l4.0 0l0 4.0l-4.0 0zm13.3125 0l0 -4.0l4.03125 0l0 4.0l-4.03125 0zm12.3125 0l0 -4.0l4.0 0l0 4.0l-4.0 0z" fill-rule="nonzero"></path></g></svg>

